<svg xmlns="http://www.w3.org/2000/svg" enable-background="new 0 0 50 50" viewBox="0 0 50 50">
    <path fill="white" d="M15.9 32.3v3.8c0 .6.4 1 1 1H33c.6 0 1-.4 1-1v-3.8c0-2.8-2.2-5-5-5h-8.1C18.1 27.3 15.9 29.6 15.9 32.3zM17.9 32.3c0-1.7 1.3-3 3-3H29c1.7 0 3 1.3 3 3v2.8H17.9V32.3zM25 25.8c3 0 5.3-3 5.3-5.7 0-2.8-2.4-5.2-5.3-5.2-2.9 0-5.3 2.3-5.3 5.2C19.7 22.8 21.9 25.8 25 25.8zM25 16.9c1.8 0 3.3 1.4 3.3 3.2 0 1.7-1.4 3.7-3.3 3.7s-3.3-2-3.3-3.7C21.7 18.3 23.1 16.9 25 16.9zM36.4 43.4c-7 4.5-16 4.5-23 0 0 0-.1 0-.1 0l4-.3c.6 0 1-.5.9-1.1s-.5-1-1.1-.9l-5.7.4c-.3 0-.5.1-.7.3-.2.2-.3.5-.2.7l.4 5.7c0 .5.5.9 1 .9 0 0 0 0 .1 0 .6 0 1-.5.9-1.1l-.2-2.7c7.7 4.7 17.3 4.5 24.7-.3.5-.3.6-.9.3-1.4C37.5 43.2 36.9 43.1 36.4 43.4zM8.1 11.3l-5.6-.6c-.6-.1-1 .3-1.1.9-.1.5.3 1 .9 1.1L4.9 13c-2.2 3.7-3.4 7.9-3.4 12.2 0 4.5 1.3 8.8 3.6 12.6.3.5.9.6 1.4.3.5-.3.6-.9.3-1.4-2.2-3.4-3.3-7.4-3.3-11.5 0-4.1 1.1-8.1 3.3-11.5 0 0 0 0 0-.1l-.4 4c-.1.5.3 1 .9 1.1 0 0 .1 0 .1 0 .5 0 .9-.4 1-.9l.6-5.4C9 11.9 8.6 11.4 8.1 11.3zM38.6 1.6c-.1-.5-.7-.9-1.2-.7-.5.1-.9.7-.7 1.2l.8 3.1C33.7 2.8 29.4 1.6 25 1.6c-4.5 0-8.8 1.3-12.6 3.7-.5.3-.6.9-.3 1.4.3.5.9.6 1.4.3 3.4-2.2 7.4-3.3 11.5-3.3 4.1 0 8.1 1.2 11.5 3.3 0 0 .1 0 .1 0l-3.2.8C32.8 8 32.5 8.5 32.6 9c.1.5.5.7 1 .7.1 0 .2 0 .3 0l5.5-1.4c.5-.1.9-.7.7-1.2L38.6 1.6zM47.8 37.9l-2.9-.3c2.3-3.7 3.6-8 3.6-12.4 0-4.5-1.3-8.8-3.6-12.6-.3-.5-.9-.6-1.4-.3-.5.3-.6.9-.3 1.4 2.2 3.4 3.3 7.4 3.3 11.5 0 4-1.1 7.9-3.2 11.3l.4-3.7c.1-.5-.3-1-.9-1.1-.5 0-1 .3-1.1.9l-.6 5.7c0 .3.1.5.2.7.2.2.4.3.7.4l5.6.6c0 0 .1 0 .1 0 .5 0 .9-.4 1-.9C48.7 38.4 48.3 37.9 47.8 37.9z"/>
</svg>