<svg xmlns="http://www.w3.org/2000/svg" width="500" height="500" viewBox="-3 0 375 375.467">
    <path fill="white" d="M321.085938 68.265625c-18.820313 0-34.132813-15.3125-34.132813-34.132813 0-18.820312 15.3125-34.132812 34.132813-34.132812 18.820312 0 34.132812 15.3125 34.132812 34.132812 0 18.820313-15.3125 34.132813-34.132812 34.132813zm0-54.613281c-11.292969 0-20.480469 9.1875-20.480469 20.480468 0 11.292969 9.1875 20.480469 20.480469 20.480469 11.292968 0 20.480468-9.1875 20.480468-20.480469 0-11.292968-9.1875-20.480468-20.480468-20.480468zm0 0M341.566406 218.453125h-40.960937c-3.773438 0-6.824219-3.054687-6.824219-6.828125v-40.957031h-13.65625c-3.773438 0-6.824219-3.058594-6.824219-6.828125v-46.515625c0-23.285157 18.945313-42.230469 42.230469-42.230469h11.109375c23.285156 0 42.234375 18.945312 42.234375 42.230469v46.515625c0 3.769531-3.054688 6.828125-6.828125 6.828125h-13.652344v40.957031c0 3.773438-3.054687 6.828125-6.828125 6.828125zm-34.132812-13.652344h27.304687v-40.960937c0-3.769532 3.054688-6.828125 6.828125-6.828125h13.652344v-39.6875c0-15.757813-12.820312-28.578125-28.578125-28.578125h-11.109375c-15.757812 0-28.578125 12.820312-28.578125 28.578125v39.6875h13.652344c3.773437 0 6.828125 3.058593 6.828125 6.828125zm0 0M266.472656 218.453125h-20.480468c-3.773438 0-6.824219-3.054687-6.824219-6.828125 0-3.769531 3.050781-6.824219 6.824219-6.824219h20.480468c3.773438 0 6.828125 3.054688 6.828125 6.824219 0 3.773438-3.054687 6.828125-6.828125 6.828125zm0 0M264.539062 375.464844c-3.773437 0-6.824218-3.054688-6.824218-6.824219s3.050781-6.828125 6.824218-6.828125h39.480469c3.753907 0 7.148438 3.027344 7.171875 6.777344.027344 3.75-2.625 6.820312-6.371094 6.875zm-40.171874 0h-40.179688c-3.773438 0-6.828125-3.054688-6.828125-6.824219s3.054687-6.828125 6.828125-6.828125h40.179688c3.773437 0 6.824218 3.058594 6.824218 6.828125s-3.050781 6.824219-6.824218 6.824219zm112.914062-20.113282c-1.070312 0-2.15625-.25-3.167969-.78125-3.339843-1.753906-4.625-5.878906-2.875-9.214843 2.320313-4.429688 3.5-9.222657 3.5-14.261719v-6.824219c.007813-4.214843-.824219-8.285156-2.472656-12.113281-1.484375-3.460938.113281-7.480469 3.582031-8.964844 3.433594-1.496094 7.472656.105469 8.96875 3.574219 2.378906 5.546875 3.585938 11.4375 3.578125 17.511719v6.816406c0 7.164062-1.753906 14.289062-5.058593 20.597656-1.222657 2.328125-3.59375 3.660156-6.054688 3.660156zm-29.65625-61.632812c-.210938 0-.433594-.011719-.652344-.03125-.972656-.09375-1.960937-.140625-2.953125-.140625h-36.574219c-3.773437 0-6.824218-3.058594-6.824218-6.828125s3.050781-6.824219 6.824218-6.824219h36.574219c1.433594 0 2.847657.066407 4.246094.199219 3.753906.359375 6.507813 3.691406 6.148437 7.445312-.332031 3.53125-3.308593 6.179688-6.789062 6.179688zm-80.351562-.171875h-12c-11.273438 0-22.011719-4.230469-30.253907-11.914063-2.761719-2.570312-2.914062-6.886718-.339843-9.648437 2.582031-2.75 6.894531-2.902344 9.644531-.335937 5.707031 5.316406 13.148437 8.246093 20.949219 8.246093h12c3.773437 0 6.824218 3.054688 6.824218 6.824219s-3.050781 6.828125-6.824218 6.828125zm-48.394532-46.800781c-.558594 0-1.117187-.066406-1.683594-.210938-3.65625-.925781-5.867187-4.640625-4.941406-8.292968 4-15.734376 16.238282-28.015626 31.953125-32.046876 3.652344-.925781 7.375 1.257813 8.3125 4.914063.933594 3.652344-1.265625 7.375-4.914062 8.3125-10.878907 2.789063-19.351563 11.289063-22.113281 22.179687-.785157 3.089844-3.566407 5.144532-6.613282 5.144532zm0 0M143.59375 375.464844h-20.480469c-3.773437 0-6.828125-3.054688-6.828125-6.824219s3.054688-6.828125 6.828125-6.828125h20.480469c3.773438 0 6.828125 3.058594 6.828125 6.828125s-3.054687 6.824219-6.828125 6.824219zm0 0M82.152344 375.464844c-1.613282 0-3.21875-.566406-4.511719-1.703125-3.160156-2.789063-77.40625-68.75-77.40625-110.933594 0-43.292969 35.21875-78.507813 78.503906-78.507813 43.289063 0 78.507813 35.214844 78.507813 78.507813 0 41.992187-67.464844 107.925781-70.339844 110.710937-1.320312 1.28125-3.03125 1.925782-4.753906 1.925782zm-3.414063-177.492188c-35.757812 0-64.851562 29.09375-64.851562 64.855469 0 27.832031 45.378906 75.484375 68.039062 96.40625 20.679688-21.058594 61.667969-68.550781 61.667969-96.40625 0-35.761719-29.09375-64.855469-64.855469-64.855469zm0 109.226563c-24.464843 0-44.371093-19.90625-44.371093-44.371094 0-24.46875 19.90625-44.375 44.371093-44.375 24.46875 0 44.375 19.90625 44.375 44.375 0 24.464844-19.90625 44.371094-44.375 44.371094zm0-75.09375c-16.9375 0-30.71875 13.78125-30.71875 30.722656 0 16.9375 13.78125 30.71875 30.71875 30.71875 16.941407 0 30.722657-13.78125 30.722657-30.71875 0-16.941406-13.78125-30.722656-30.722657-30.722656zm0 0"/>
</svg>